<svg width="154" height="48" viewBox="0 0 154 48" fill="none" xmlns="http://www.w3.org/2000/svg">
<g style="mix-blend-mode:luminosity" clip-path="url(#clip0_333_1361)" filter="url(#filter0_d_333_1361)">
<path d="M55.525 34.7749V20.2199H55.8176L67.7715 34.7749H71.5333V13.4006H67.3536V27.919H67.061L55.1071 13.4006H51.3453V34.7749H55.525ZM83.3618 35.1049C88.879 35.1049 92.2646 31.9519 92.2646 26.6725C92.2646 21.4297 88.879 18.2401 83.3618 18.2401C77.8864 18.2401 74.4591 21.4297 74.4591 26.6725C74.5009 31.9519 77.8446 35.1049 83.3618 35.1049ZM83.3618 32.0252C80.436 32.0252 78.7642 30.0821 78.7642 26.6725C78.7642 23.2995 80.436 21.3198 83.3618 21.3198C86.2876 21.3198 87.9595 23.2995 87.9595 26.6725C87.9595 30.0821 86.2876 32.0252 83.3618 32.0252ZM96.0681 14.6105V18.68H93.1423V21.6131H96.0681V30.4487C96.0681 33.6017 97.74 34.8483 102.003 34.8483C102.797 34.8483 103.592 34.7749 104.219 34.6649V31.8053C103.717 31.8419 103.383 31.8786 102.797 31.8786C101.042 31.8786 100.248 31.182 100.248 29.5688V21.6131H104.219V18.68H100.248V14.6105H96.0681ZM106.726 34.7749H110.906V18.5701H106.726V34.7749ZM108.816 15.8937C110.196 15.8937 111.324 14.9038 111.324 13.6939C111.324 12.4474 110.196 11.4575 108.816 11.4575C107.437 11.4575 106.308 12.4474 106.308 13.6939C106.308 14.9038 107.437 15.8937 108.816 15.8937ZM122.358 35.1049C127.876 35.1049 131.261 31.9519 131.261 26.6725C131.261 21.4297 127.876 18.2401 122.358 18.2401C116.883 18.2401 113.456 21.4297 113.456 26.6725C113.456 31.9519 116.799 35.1049 122.358 35.1049ZM122.358 32.0252C119.433 32.0252 117.761 30.0821 117.761 26.6725C117.761 23.2995 119.433 21.3198 122.358 21.3198C125.242 21.3198 126.956 23.2995 126.956 26.6725C126.914 30.0821 125.242 32.0252 122.358 32.0252ZM133.727 34.7749H137.907V25.3526C137.907 22.9696 139.495 21.4664 141.961 21.4664C144.511 21.4664 145.681 22.7129 145.681 25.1693V34.7749H149.861V24.2894C149.861 20.4032 147.604 18.2401 143.508 18.2401C140.749 18.2401 138.91 19.34 138.032 21.1731H137.74V18.5701H133.685C133.727 18.5701 133.727 34.7749 133.727 34.7749Z" fill="black"/>
<path fill-rule="evenodd" clip-rule="evenodd" d="M11.2691 12.0326C12.4856 12.9024 12.9256 12.8337 15.2034 12.6964L36.6605 11.5519C37.1264 11.5519 36.7381 11.1399 36.5828 11.0941L33.011 8.82806C32.338 8.37028 31.4062 7.82093 29.672 7.95826L8.91376 9.30874C8.16315 9.37741 8.00785 9.72075 8.31844 9.97254L11.2691 12.0326ZM12.5633 16.4502V36.4098C12.5633 37.4857 13.1586 37.8748 14.5304 37.8061L38.1099 36.593C39.4818 36.5243 39.637 35.7918 39.637 34.922V15.0998C39.637 14.23 39.2488 13.7493 38.4205 13.818L13.7798 15.0998C12.8739 15.1684 12.5633 15.5804 12.5633 16.4502ZM35.8322 17.5261C35.9875 18.1212 35.8322 18.7392 35.1593 18.8079L34.0204 19.0139V33.7547C33.0368 34.2125 32.1309 34.4871 31.3544 34.4871C30.1379 34.4871 29.8273 34.1438 28.9214 33.1367L21.493 22.8135V32.7933L23.8483 33.2511C23.8483 33.2511 23.8483 34.4642 21.9589 34.4642L16.7305 34.7389C16.5752 34.4642 16.7305 33.8005 17.2481 33.6631L18.6199 33.3198V20.1355L16.7305 19.9981C16.5752 19.403 16.9634 18.5332 18.0246 18.4645L23.6413 18.1212L31.3803 28.5588V19.3343L29.4132 19.1283C29.2579 18.3959 29.8791 17.8465 30.6297 17.7778L35.8322 17.5261ZM7.17958 7.47759L28.792 6.08133C31.4321 5.87532 32.1309 6.01266 33.7875 7.08847L40.6724 11.3688C41.8112 12.1013 42.1995 12.3073 42.1995 13.1084V36.6159C42.1995 38.0808 41.6042 38.9506 39.4817 39.0879L14.401 40.4384C12.7962 40.5071 12.0456 40.3011 11.2174 39.3626L6.11838 33.5258C5.21247 32.45 4.82422 31.6488 4.82422 30.7104V9.81231C4.82422 8.59917 5.44541 7.61492 7.17958 7.47759Z" fill="black"/>
</g>
<defs>
<filter id="filter0_d_333_1361" x="0.824219" y="0" width="153.551" height="56" filterUnits="userSpaceOnUse" color-interpolation-filters="sRGB">
<feFlood flood-opacity="0" result="BackgroundImageFix"/>
<feColorMatrix in="SourceAlpha" type="matrix" values="0 0 0 0 0 0 0 0 0 0 0 0 0 0 0 0 0 0 127 0" result="hardAlpha"/>
<feOffset dy="4"/>
<feGaussianBlur stdDeviation="2"/>
<feComposite in2="hardAlpha" operator="out"/>
<feColorMatrix type="matrix" values="0 0 0 0 0 0 0 0 0 0 0 0 0 0 0 0 0 0 0.25 0"/>
<feBlend mode="normal" in2="BackgroundImageFix" result="effect1_dropShadow_333_1361"/>
<feBlend mode="normal" in="SourceGraphic" in2="effect1_dropShadow_333_1361" result="shape"/>
</filter>
<clipPath id="clip0_333_1361">
<rect width="145.551" height="48" fill="white" transform="translate(4.82422)"/>
</clipPath>
</defs>
</svg>
