<svg width="497" height="197" viewBox="0 0 497 197" fill="none" xmlns="http://www.w3.org/2000/svg">
<path d="M3.38 42V-2.86102e-06H15.86L27.26 37.68H28.22V-2.86102e-06H34.64V42H22.16L10.76 4.26H9.8V42H3.38ZM52.7595 42.84C50.6395 42.84 48.7395 42.48 47.0595 41.76C45.4195 41.04 44.0995 39.98 43.0995 38.58C42.1395 37.18 41.6595 35.48 41.6595 33.48C41.6595 31.44 42.1395 29.76 43.0995 28.44C44.0995 27.08 45.4395 26.06 47.1195 25.38C48.8395 24.7 50.7795 24.36 52.9395 24.36H61.9395V22.44C61.9395 20.72 61.4195 19.34 60.3795 18.3C59.3395 17.26 57.7395 16.74 55.5795 16.74C53.4595 16.74 51.8395 17.24 50.7195 18.24C49.5995 19.24 48.8595 20.54 48.4995 22.14L42.7395 20.28C43.2195 18.68 43.9795 17.24 45.0195 15.96C46.0995 14.64 47.5195 13.58 49.2795 12.78C51.0395 11.98 53.1595 11.58 55.6395 11.58C59.4795 11.58 62.4995 12.56 64.6995 14.52C66.8995 16.48 67.9995 19.26 67.9995 22.86V35.04C67.9995 36.24 68.5595 36.84 69.6795 36.84H72.1995V42H67.5795C66.1795 42 65.0395 41.64 64.1595 40.92C63.2795 40.2 62.8395 39.22 62.8395 37.98V37.8H61.9395C61.6195 38.4 61.1395 39.1 60.4995 39.9C59.8595 40.7 58.9195 41.4 57.6795 42C56.4395 42.56 54.7995 42.84 52.7595 42.84ZM53.6595 37.74C56.1395 37.74 58.1395 37.04 59.6595 35.64C61.1795 34.2 61.9395 32.24 61.9395 29.76V29.16H53.2995C51.6595 29.16 50.3395 29.52 49.3395 30.24C48.3395 30.92 47.8395 31.94 47.8395 33.3C47.8395 34.66 48.3595 35.74 49.3995 36.54C50.4395 37.34 51.8595 37.74 53.6595 37.74ZM83.4078 42L73.4478 12.42H79.9878L87.8478 37.44H88.8078L96.6678 12.42H103.208L93.2478 42H83.4078ZM109.205 42V12.42H115.385V42H109.205ZM112.325 8.4C111.125 8.4 110.105 8.02 109.265 7.26C108.465 6.46 108.065 5.44 108.065 4.2C108.065 2.96 108.465 1.96 109.265 1.2C110.105 0.399998 111.125 -2.86102e-06 112.325 -2.86102e-06C113.565 -2.86102e-06 114.585 0.399998 115.385 1.2C116.185 1.96 116.585 2.96 116.585 4.2C116.585 5.44 116.185 6.46 115.385 7.26C114.585 8.02 113.565 8.4 112.325 8.4ZM123.116 27.36V26.46C123.116 23.34 123.736 20.68 124.976 18.48C126.256 16.28 127.936 14.58 130.016 13.38C132.096 12.18 134.376 11.58 136.856 11.58C139.736 11.58 141.936 12.12 143.456 13.2C145.016 14.28 146.156 15.44 146.876 16.68H147.836V12.42H153.836V48.06C153.836 49.86 153.296 51.3 152.216 52.38C151.176 53.46 149.736 54 147.896 54H127.976V48.6H145.976C147.136 48.6 147.716 48 147.716 46.8V37.38H146.756C146.316 38.1 145.696 38.84 144.896 39.6C144.096 40.36 143.036 40.98 141.716 41.46C140.436 41.94 138.816 42.18 136.856 42.18C134.376 42.18 132.076 41.6 129.956 40.44C127.876 39.24 126.216 37.54 124.976 35.34C123.736 33.1 123.116 30.44 123.116 27.36ZM138.536 36.78C141.216 36.78 143.416 35.94 145.136 34.26C146.896 32.54 147.776 30.18 147.776 27.18V26.64C147.776 23.56 146.916 21.2 145.196 19.56C143.476 17.88 141.256 17.04 138.536 17.04C135.896 17.04 133.696 17.88 131.936 19.56C130.216 21.2 129.356 23.56 129.356 26.64V27.18C129.356 30.18 130.216 32.54 131.936 34.26C133.696 35.94 135.896 36.78 138.536 36.78ZM172.115 42.84C169.995 42.84 168.095 42.48 166.415 41.76C164.775 41.04 163.455 39.98 162.455 38.58C161.495 37.18 161.015 35.48 161.015 33.48C161.015 31.44 161.495 29.76 162.455 28.44C163.455 27.08 164.795 26.06 166.475 25.38C168.195 24.7 170.135 24.36 172.295 24.36H181.295V22.44C181.295 20.72 180.775 19.34 179.735 18.3C178.695 17.26 177.095 16.74 174.935 16.74C172.815 16.74 171.195 17.24 170.075 18.24C168.955 19.24 168.215 20.54 167.855 22.14L162.095 20.28C162.575 18.68 163.335 17.24 164.375 15.96C165.455 14.64 166.875 13.58 168.635 12.78C170.395 11.98 172.515 11.58 174.995 11.58C178.835 11.58 181.855 12.56 184.055 14.52C186.255 16.48 187.355 19.26 187.355 22.86V35.04C187.355 36.24 187.915 36.84 189.035 36.84H191.555V42H186.935C185.535 42 184.395 41.64 183.515 40.92C182.635 40.2 182.195 39.22 182.195 37.98V37.8H181.295C180.975 38.4 180.495 39.1 179.855 39.9C179.215 40.7 178.275 41.4 177.035 42C175.795 42.56 174.155 42.84 172.115 42.84ZM173.015 37.74C175.495 37.74 177.495 37.04 179.015 35.64C180.535 34.2 181.295 32.24 181.295 29.76V29.16H172.655C171.015 29.16 169.695 29.52 168.695 30.24C167.695 30.92 167.195 31.94 167.195 33.3C167.195 34.66 167.715 35.74 168.755 36.54C169.795 37.34 171.215 37.74 173.015 37.74ZM206.613 42C204.813 42 203.373 41.46 202.293 40.38C201.253 39.3 200.733 37.86 200.733 36.06V17.64H192.573V12.42H200.733V2.64H206.913V12.42H215.733V17.64H206.913V34.98C206.913 36.18 207.473 36.78 208.593 36.78H214.773V42H206.613ZM222.994 42V12.42H229.174V42H222.994ZM226.114 8.4C224.914 8.4 223.894 8.02 223.054 7.26C222.254 6.46 221.854 5.44 221.854 4.2C221.854 2.96 222.254 1.96 223.054 1.2C223.894 0.399998 224.914 -2.86102e-06 226.114 -2.86102e-06C227.354 -2.86102e-06 228.374 0.399998 229.174 1.2C229.974 1.96 230.374 2.96 230.374 4.2C230.374 5.44 229.974 6.46 229.174 7.26C228.374 8.02 227.354 8.4 226.114 8.4ZM238.345 42V12.42H244.405V16.86H245.365C245.925 15.66 246.925 14.54 248.365 13.5C249.805 12.46 251.945 11.94 254.785 11.94C257.025 11.94 259.005 12.44 260.725 13.44C262.485 14.44 263.865 15.86 264.865 17.7C265.865 19.5 266.365 21.68 266.365 24.24V42H260.185V24.72C260.185 22.16 259.545 20.28 258.265 19.08C256.985 17.84 255.225 17.22 252.985 17.22C250.425 17.22 248.365 18.06 246.805 19.74C245.285 21.42 244.525 23.86 244.525 27.06V42H238.345ZM273.819 27.36V26.46C273.819 23.34 274.439 20.68 275.679 18.48C276.959 16.28 278.639 14.58 280.719 13.38C282.799 12.18 285.079 11.58 287.559 11.58C290.439 11.58 292.639 12.12 294.159 13.2C295.719 14.28 296.859 15.44 297.579 16.68H298.539V12.42H304.539V48.06C304.539 49.86 303.999 51.3 302.919 52.38C301.879 53.46 300.439 54 298.599 54H278.679V48.6H296.679C297.839 48.6 298.419 48 298.419 46.8V37.38H297.459C297.019 38.1 296.399 38.84 295.599 39.6C294.799 40.36 293.739 40.98 292.419 41.46C291.139 41.94 289.519 42.18 287.559 42.18C285.079 42.18 282.779 41.6 280.659 40.44C278.579 39.24 276.919 37.54 275.679 35.34C274.439 33.1 273.819 30.44 273.819 27.36ZM289.239 36.78C291.919 36.78 294.119 35.94 295.839 34.26C297.599 32.54 298.479 30.18 298.479 27.18V26.64C298.479 23.56 297.619 21.2 295.899 19.56C294.179 17.88 291.959 17.04 289.239 17.04C286.599 17.04 284.399 17.88 282.639 19.56C280.919 21.2 280.059 23.56 280.059 26.64V27.18C280.059 30.18 280.919 32.54 282.639 34.26C284.399 35.94 286.599 36.78 289.239 36.78ZM340.031 42C338.231 42 336.791 41.46 335.711 40.38C334.671 39.3 334.151 37.86 334.151 36.06V17.64H325.991V12.42H334.151V2.64H340.331V12.42H349.151V17.64H340.331V34.98C340.331 36.18 340.891 36.78 342.011 36.78H348.191V42H340.031ZM356.412 42V-2.86102e-06H362.592V16.62H363.552C363.952 15.86 364.512 15.12 365.232 14.4C365.992 13.68 366.972 13.1 368.172 12.66C369.412 12.18 370.972 11.94 372.852 11.94C375.092 11.94 377.072 12.44 378.792 13.44C380.552 14.44 381.932 15.86 382.932 17.7C383.932 19.5 384.432 21.68 384.432 24.24V42H378.252V24.72C378.252 22.16 377.612 20.28 376.332 19.08C375.052 17.84 373.292 17.22 371.052 17.22C368.492 17.22 366.432 18.06 364.872 19.74C363.352 21.42 362.592 23.86 362.592 27.06V42H356.412ZM406.886 42.84C403.886 42.84 401.266 42.22 399.026 40.98C396.786 39.7 395.026 37.92 393.746 35.64C392.506 33.32 391.886 30.64 391.886 27.6V26.88C391.886 23.8 392.506 21.12 393.746 18.84C394.986 16.52 396.706 14.74 398.906 13.5C401.146 12.22 403.726 11.58 406.646 11.58C409.486 11.58 411.966 12.22 414.086 13.5C416.246 14.74 417.926 16.48 419.126 18.72C420.326 20.96 420.926 23.58 420.926 26.58V28.92H398.186C398.266 31.52 399.126 33.6 400.766 35.16C402.446 36.68 404.526 37.44 407.006 37.44C409.326 37.44 411.066 36.92 412.226 35.88C413.426 34.84 414.346 33.64 414.986 32.28L420.086 34.92C419.526 36.04 418.706 37.22 417.626 38.46C416.586 39.7 415.206 40.74 413.486 41.58C411.766 42.42 409.566 42.84 406.886 42.84ZM398.246 24.18H414.626C414.466 21.94 413.666 20.2 412.226 18.96C410.786 17.68 408.906 17.04 406.586 17.04C404.266 17.04 402.366 17.68 400.886 18.96C399.446 20.2 398.566 21.94 398.246 24.18ZM15.8 119.84C13.36 119.84 11.1 119.24 9.02 118.04C6.94 116.84 5.26 115.12 3.98 112.88C2.74 110.6 2.12 107.86 2.12 104.66V103.76C2.12 100.6 2.74 97.88 3.98 95.6C5.22 93.32 6.88 91.58 8.96 90.38C11.04 89.18 13.32 88.58 15.8 88.58C17.72 88.58 19.32 88.82 20.6 89.3C21.92 89.78 23 90.4 23.84 91.16C24.68 91.88 25.32 92.64 25.76 93.44H26.72V77H32.9V119H26.84V114.8H25.88C25.12 116.08 23.96 117.24 22.4 118.28C20.88 119.32 18.68 119.84 15.8 119.84ZM17.54 114.44C20.22 114.44 22.42 113.58 24.14 111.86C25.9 110.14 26.78 107.68 26.78 104.48V103.94C26.78 100.78 25.92 98.34 24.2 96.62C22.48 94.9 20.26 94.04 17.54 94.04C14.9 94.04 12.7 94.9 10.94 96.62C9.22 98.34 8.36 100.78 8.36 103.94V104.48C8.36 107.68 9.22 110.14 10.94 111.86C12.7 113.58 14.9 114.44 17.54 114.44ZM41.9975 119V89.42H48.1775V119H41.9975ZM45.1175 85.4C43.9175 85.4 42.8975 85.02 42.0575 84.26C41.2575 83.46 40.8575 82.44 40.8575 81.2C40.8575 79.96 41.2575 78.96 42.0575 78.2C42.8975 77.4 43.9175 77 45.1175 77C46.3575 77 47.3775 77.4 48.1775 78.2C48.9775 78.96 49.3775 79.96 49.3775 81.2C49.3775 82.44 48.9775 83.46 48.1775 84.26C47.3775 85.02 46.3575 85.4 45.1175 85.4ZM55.9091 104.36V103.46C55.9091 100.34 56.5291 97.68 57.7691 95.48C59.0491 93.28 60.7291 91.58 62.8091 90.38C64.8891 89.18 67.1691 88.58 69.6491 88.58C72.5291 88.58 74.7291 89.12 76.2491 90.2C77.8091 91.28 78.9491 92.44 79.6691 93.68H80.6291V89.42H86.6291V125.06C86.6291 126.86 86.0891 128.3 85.0091 129.38C83.9691 130.46 82.5291 131 80.6891 131H60.7691V125.6H78.7691C79.9291 125.6 80.5091 125 80.5091 123.8V114.38H79.5491C79.1091 115.1 78.4891 115.84 77.6891 116.6C76.8891 117.36 75.8291 117.98 74.5091 118.46C73.2291 118.94 71.6091 119.18 69.6491 119.18C67.1691 119.18 64.8691 118.6 62.7491 117.44C60.6691 116.24 59.0091 114.54 57.7691 112.34C56.5291 110.1 55.9091 107.44 55.9091 104.36ZM71.3291 113.78C74.0091 113.78 76.2091 112.94 77.9291 111.26C79.6891 109.54 80.5691 107.18 80.5691 104.18V103.64C80.5691 100.56 79.7091 98.2 77.9891 96.56C76.2691 94.88 74.0491 94.04 71.3291 94.04C68.6891 94.04 66.4891 94.88 64.7291 96.56C63.0091 98.2 62.1491 100.56 62.1491 103.64V104.18C62.1491 107.18 63.0091 109.54 64.7291 111.26C66.4891 112.94 68.6891 113.78 71.3291 113.78ZM95.728 119V89.42H101.908V119H95.728ZM98.848 85.4C97.648 85.4 96.628 85.02 95.788 84.26C94.988 83.46 94.588 82.44 94.588 81.2C94.588 79.96 94.988 78.96 95.788 78.2C96.628 77.4 97.648 77 98.848 77C100.088 77 101.108 77.4 101.908 78.2C102.708 78.96 103.108 79.96 103.108 81.2C103.108 82.44 102.708 83.46 101.908 84.26C101.108 85.02 100.088 85.4 98.848 85.4ZM122.18 119C120.38 119 118.94 118.46 117.86 117.38C116.82 116.3 116.3 114.86 116.3 113.06V94.64H108.14V89.42H116.3V79.64H122.48V89.42H131.3V94.64H122.48V111.98C122.48 113.18 123.04 113.78 124.16 113.78H130.34V119H122.18ZM147.681 119.84C145.561 119.84 143.661 119.48 141.981 118.76C140.341 118.04 139.021 116.98 138.021 115.58C137.061 114.18 136.581 112.48 136.581 110.48C136.581 108.44 137.061 106.76 138.021 105.44C139.021 104.08 140.361 103.06 142.041 102.38C143.761 101.7 145.701 101.36 147.861 101.36H156.861V99.44C156.861 97.72 156.341 96.34 155.301 95.3C154.261 94.26 152.661 93.74 150.501 93.74C148.381 93.74 146.761 94.24 145.641 95.24C144.521 96.24 143.781 97.54 143.421 99.14L137.661 97.28C138.141 95.68 138.901 94.24 139.941 92.96C141.021 91.64 142.441 90.58 144.201 89.78C145.961 88.98 148.081 88.58 150.561 88.58C154.401 88.58 157.421 89.56 159.621 91.52C161.821 93.48 162.921 96.26 162.921 99.86V112.04C162.921 113.24 163.481 113.84 164.601 113.84H167.121V119H162.501C161.101 119 159.961 118.64 159.081 117.92C158.201 117.2 157.761 116.22 157.761 114.98V114.8H156.861C156.541 115.4 156.061 116.1 155.421 116.9C154.781 117.7 153.841 118.4 152.601 119C151.361 119.56 149.721 119.84 147.681 119.84ZM148.581 114.74C151.061 114.74 153.061 114.04 154.581 112.64C156.101 111.2 156.861 109.24 156.861 106.76V106.16H148.221C146.581 106.16 145.261 106.52 144.261 107.24C143.261 107.92 142.761 108.94 142.761 110.3C142.761 111.66 143.281 112.74 144.321 113.54C145.361 114.34 146.781 114.74 148.581 114.74ZM173.13 119V77H179.31V119H173.13ZM203.775 119V77H209.955V119H203.775ZM228.306 119.84C226.186 119.84 224.286 119.48 222.606 118.76C220.966 118.04 219.646 116.98 218.646 115.58C217.686 114.18 217.206 112.48 217.206 110.48C217.206 108.44 217.686 106.76 218.646 105.44C219.646 104.08 220.986 103.06 222.666 102.38C224.386 101.7 226.326 101.36 228.486 101.36H237.486V99.44C237.486 97.72 236.966 96.34 235.926 95.3C234.886 94.26 233.286 93.74 231.126 93.74C229.006 93.74 227.386 94.24 226.266 95.24C225.146 96.24 224.406 97.54 224.046 99.14L218.286 97.28C218.766 95.68 219.526 94.24 220.566 92.96C221.646 91.64 223.066 90.58 224.826 89.78C226.586 88.98 228.706 88.58 231.186 88.58C235.026 88.58 238.046 89.56 240.246 91.52C242.446 93.48 243.546 96.26 243.546 99.86V112.04C243.546 113.24 244.106 113.84 245.226 113.84H247.746V119H243.126C241.726 119 240.586 118.64 239.706 117.92C238.826 117.2 238.386 116.22 238.386 114.98V114.8H237.486C237.166 115.4 236.686 116.1 236.046 116.9C235.406 117.7 234.466 118.4 233.226 119C231.986 119.56 230.346 119.84 228.306 119.84ZM229.206 114.74C231.686 114.74 233.686 114.04 235.206 112.64C236.726 111.2 237.486 109.24 237.486 106.76V106.16H228.846C227.206 106.16 225.886 106.52 224.886 107.24C223.886 107.92 223.386 108.94 223.386 110.3C223.386 111.66 223.906 112.74 224.946 113.54C225.986 114.34 227.406 114.74 229.206 114.74ZM253.755 119V89.42H259.815V93.86H260.775C261.335 92.66 262.335 91.54 263.775 90.5C265.215 89.46 267.355 88.94 270.195 88.94C272.435 88.94 274.415 89.44 276.135 90.44C277.895 91.44 279.275 92.86 280.275 94.7C281.275 96.5 281.775 98.68 281.775 101.24V119H275.595V101.72C275.595 99.16 274.955 97.28 273.675 96.08C272.395 94.84 270.635 94.22 268.395 94.22C265.835 94.22 263.775 95.06 262.215 96.74C260.695 98.42 259.935 100.86 259.935 104.06V119H253.755ZM302.909 119.84C300.469 119.84 298.209 119.24 296.129 118.04C294.049 116.84 292.369 115.12 291.089 112.88C289.849 110.6 289.229 107.86 289.229 104.66V103.76C289.229 100.6 289.849 97.88 291.089 95.6C292.329 93.32 293.989 91.58 296.069 90.38C298.149 89.18 300.429 88.58 302.909 88.58C304.829 88.58 306.429 88.82 307.709 89.3C309.029 89.78 310.109 90.4 310.949 91.16C311.789 91.88 312.429 92.64 312.869 93.44H313.829V77H320.009V119H313.949V114.8H312.989C312.229 116.08 311.069 117.24 309.509 118.28C307.989 119.32 305.789 119.84 302.909 119.84ZM304.649 114.44C307.329 114.44 309.529 113.58 311.249 111.86C313.009 110.14 313.889 107.68 313.889 104.48V103.94C313.889 100.78 313.029 98.34 311.309 96.62C309.589 94.9 307.369 94.04 304.649 94.04C302.009 94.04 299.809 94.9 298.049 96.62C296.329 98.34 295.469 100.78 295.469 103.94V104.48C295.469 107.68 296.329 110.14 298.049 111.86C299.809 113.58 302.009 114.44 304.649 114.44ZM341.227 119.84C337.467 119.84 334.347 119 331.867 117.32C329.387 115.64 327.867 113.1 327.307 109.7L333.067 108.32C333.387 109.96 333.927 111.26 334.687 112.22C335.447 113.18 336.387 113.86 337.507 114.26C338.667 114.66 339.907 114.86 341.227 114.86C343.187 114.86 344.687 114.48 345.727 113.72C346.807 112.96 347.347 111.98 347.347 110.78C347.347 109.58 346.847 108.7 345.847 108.14C344.847 107.58 343.367 107.12 341.407 106.76L339.367 106.4C337.367 106.04 335.547 105.52 333.907 104.84C332.267 104.16 330.967 103.22 330.007 102.02C329.047 100.82 328.567 99.28 328.567 97.4C328.567 94.6 329.607 92.44 331.687 90.92C333.767 89.36 336.527 88.58 339.967 88.58C343.287 88.58 346.007 89.34 348.127 90.86C350.287 92.34 351.687 94.36 352.327 96.92L346.567 98.54C346.207 96.74 345.447 95.48 344.287 94.76C343.127 94 341.687 93.62 339.967 93.62C338.287 93.62 336.967 93.94 336.007 94.58C335.047 95.18 334.567 96.04 334.567 97.16C334.567 98.36 335.027 99.24 335.947 99.8C336.907 100.36 338.187 100.78 339.787 101.06L341.887 101.42C344.007 101.78 345.947 102.28 347.707 102.92C349.467 103.56 350.847 104.48 351.847 105.68C352.887 106.88 353.407 108.48 353.407 110.48C353.407 113.44 352.307 115.74 350.107 117.38C347.907 119.02 344.947 119.84 341.227 119.84ZM374.37 119.84C371.53 119.84 368.95 119.24 366.63 118.04C364.35 116.84 362.53 115.1 361.17 112.82C359.85 110.54 359.19 107.8 359.19 104.6V103.82C359.19 100.62 359.85 97.9 361.17 95.66C362.53 93.38 364.35 91.64 366.63 90.44C368.95 89.2 371.53 88.58 374.37 88.58C377.21 88.58 379.63 89.1 381.63 90.14C383.63 91.18 385.23 92.56 386.43 94.28C387.67 96 388.47 97.9 388.83 99.98L382.83 101.24C382.63 99.92 382.21 98.72 381.57 97.64C380.93 96.56 380.03 95.7 378.87 95.06C377.71 94.42 376.25 94.1 374.49 94.1C372.77 94.1 371.21 94.5 369.81 95.3C368.45 96.06 367.37 97.18 366.57 98.66C365.77 100.1 365.37 101.86 365.37 103.94V104.48C365.37 106.56 365.77 108.34 366.57 109.82C367.37 111.3 368.45 112.42 369.81 113.18C371.21 113.94 372.77 114.32 374.49 114.32C377.09 114.32 379.07 113.66 380.43 112.34C381.79 110.98 382.65 109.26 383.01 107.18L389.01 108.56C388.53 110.6 387.67 112.48 386.43 114.2C385.23 115.92 383.63 117.3 381.63 118.34C379.63 119.34 377.21 119.84 374.37 119.84ZM405.318 119.84C403.198 119.84 401.298 119.48 399.618 118.76C397.978 118.04 396.658 116.98 395.658 115.58C394.698 114.18 394.218 112.48 394.218 110.48C394.218 108.44 394.698 106.76 395.658 105.44C396.658 104.08 397.998 103.06 399.678 102.38C401.398 101.7 403.338 101.36 405.498 101.36H414.498V99.44C414.498 97.72 413.978 96.34 412.938 95.3C411.898 94.26 410.298 93.74 408.138 93.74C406.018 93.74 404.398 94.24 403.278 95.24C402.158 96.24 401.418 97.54 401.058 99.14L395.298 97.28C395.778 95.68 396.538 94.24 397.578 92.96C398.658 91.64 400.078 90.58 401.838 89.78C403.598 88.98 405.718 88.58 408.198 88.58C412.038 88.58 415.058 89.56 417.258 91.52C419.458 93.48 420.558 96.26 420.558 99.86V112.04C420.558 113.24 421.118 113.84 422.238 113.84H424.758V119H420.138C418.738 119 417.598 118.64 416.718 117.92C415.838 117.2 415.398 116.22 415.398 114.98V114.8H414.498C414.178 115.4 413.698 116.1 413.058 116.9C412.418 117.7 411.478 118.4 410.238 119C408.998 119.56 407.358 119.84 405.318 119.84ZM406.218 114.74C408.698 114.74 410.698 114.04 412.218 112.64C413.738 111.2 414.498 109.24 414.498 106.76V106.16H405.858C404.218 106.16 402.898 106.52 401.898 107.24C400.898 107.92 400.398 108.94 400.398 110.3C400.398 111.66 400.918 112.74 401.958 113.54C402.998 114.34 404.418 114.74 406.218 114.74ZM430.767 131V89.42H436.827V93.68H437.787C438.547 92.36 439.687 91.18 441.207 90.14C442.767 89.1 444.987 88.58 447.867 88.58C450.347 88.58 452.607 89.18 454.647 90.38C456.727 91.58 458.387 93.32 459.627 95.6C460.907 97.84 461.547 100.56 461.547 103.76V104.66C461.547 107.86 460.927 110.6 459.687 112.88C458.447 115.12 456.787 116.84 454.707 118.04C452.627 119.24 450.347 119.84 447.867 119.84C445.947 119.84 444.327 119.6 443.007 119.12C441.687 118.64 440.627 118.04 439.827 117.32C439.027 116.56 438.387 115.78 437.907 114.98H436.947V131H430.767ZM446.067 114.44C448.787 114.44 451.007 113.58 452.727 111.86C454.447 110.14 455.307 107.68 455.307 104.48V103.94C455.307 100.78 454.427 98.34 452.667 96.62C450.947 94.9 448.747 94.04 446.067 94.04C443.427 94.04 441.227 94.9 439.467 96.62C437.747 98.34 436.887 100.78 436.887 103.94V104.48C436.887 107.68 437.747 110.14 439.467 111.86C441.227 113.58 443.427 114.44 446.067 114.44ZM482.765 119.84C479.765 119.84 477.145 119.22 474.905 117.98C472.665 116.7 470.905 114.92 469.625 112.64C468.385 110.32 467.765 107.64 467.765 104.6V103.88C467.765 100.8 468.385 98.12 469.625 95.84C470.865 93.52 472.585 91.74 474.785 90.5C477.025 89.22 479.605 88.58 482.525 88.58C485.365 88.58 487.845 89.22 489.965 90.5C492.125 91.74 493.805 93.48 495.005 95.72C496.205 97.96 496.805 100.58 496.805 103.58V105.92H474.065C474.145 108.52 475.005 110.6 476.645 112.16C478.325 113.68 480.405 114.44 482.885 114.44C485.205 114.44 486.945 113.92 488.105 112.88C489.305 111.84 490.225 110.64 490.865 109.28L495.965 111.92C495.405 113.04 494.585 114.22 493.505 115.46C492.465 116.7 491.085 117.74 489.365 118.58C487.645 119.42 485.445 119.84 482.765 119.84ZM474.125 101.18H490.505C490.345 98.94 489.545 97.2 488.105 95.96C486.665 94.68 484.785 94.04 482.465 94.04C480.145 94.04 478.245 94.68 476.765 95.96C475.325 97.2 474.445 98.94 474.125 101.18ZM8.9 196V171.64H0.62V166.42H8.9V159.94C8.9 158.14 9.44 156.7 10.52 155.62C11.6 154.54 13.04 154 14.84 154H22.46V159.22H16.82C15.66 159.22 15.08 159.82 15.08 161.02V166.42H23.6V171.64H15.08V196H8.9ZM42.5567 196.84C39.5967 196.84 36.9567 196.24 34.6367 195.04C32.3567 193.8 30.5567 192.04 29.2367 189.76C27.9167 187.48 27.2567 184.78 27.2567 181.66V180.76C27.2567 177.64 27.9167 174.96 29.2367 172.72C30.5567 170.44 32.3567 168.68 34.6367 167.44C36.9567 166.2 39.5967 165.58 42.5567 165.58C45.5167 165.58 48.1567 166.2 50.4767 167.44C52.7967 168.68 54.6167 170.44 55.9367 172.72C57.2567 174.96 57.9167 177.64 57.9167 180.76V181.66C57.9167 184.78 57.2567 187.48 55.9367 189.76C54.6167 192.04 52.7967 193.8 50.4767 195.04C48.1567 196.24 45.5167 196.84 42.5567 196.84ZM42.5567 191.32C45.2767 191.32 47.4767 190.46 49.1567 188.74C50.8767 186.98 51.7367 184.56 51.7367 181.48V180.94C51.7367 177.86 50.8967 175.46 49.2167 173.74C47.5367 171.98 45.3167 171.1 42.5567 171.1C39.8767 171.1 37.6767 171.98 35.9567 173.74C34.2767 175.46 33.4367 177.86 33.4367 180.94V181.48C33.4367 184.56 34.2767 186.98 35.9567 188.74C37.6767 190.46 39.8767 191.32 42.5567 191.32ZM65.6108 196V166.42H71.6708V169.9H72.6308C73.1108 168.66 73.8708 167.76 74.9108 167.2C75.9908 166.6 77.3108 166.3 78.8708 166.3H82.4108V171.88H78.6308C76.6308 171.88 74.9908 172.44 73.7108 173.56C72.4308 174.64 71.7908 176.32 71.7908 178.6V196H65.6108ZM116.227 196.84C112.467 196.84 109.347 196 106.867 194.32C104.387 192.64 102.867 190.1 102.307 186.7L108.067 185.32C108.387 186.96 108.927 188.26 109.687 189.22C110.447 190.18 111.387 190.86 112.507 191.26C113.667 191.66 114.907 191.86 116.227 191.86C118.187 191.86 119.687 191.48 120.727 190.72C121.807 189.96 122.347 188.98 122.347 187.78C122.347 186.58 121.847 185.7 120.847 185.14C119.847 184.58 118.367 184.12 116.407 183.76L114.367 183.4C112.367 183.04 110.547 182.52 108.907 181.84C107.267 181.16 105.967 180.22 105.007 179.02C104.047 177.82 103.567 176.28 103.567 174.4C103.567 171.6 104.607 169.44 106.687 167.92C108.767 166.36 111.527 165.58 114.967 165.58C118.287 165.58 121.007 166.34 123.127 167.86C125.287 169.34 126.687 171.36 127.327 173.92L121.567 175.54C121.207 173.74 120.447 172.48 119.287 171.76C118.127 171 116.687 170.62 114.967 170.62C113.287 170.62 111.967 170.94 111.007 171.58C110.047 172.18 109.567 173.04 109.567 174.16C109.567 175.36 110.027 176.24 110.947 176.8C111.907 177.36 113.187 177.78 114.787 178.06L116.887 178.42C119.007 178.78 120.947 179.28 122.707 179.92C124.467 180.56 125.847 181.48 126.847 182.68C127.887 183.88 128.407 185.48 128.407 187.48C128.407 190.44 127.307 192.74 125.107 194.38C122.907 196.02 119.947 196.84 116.227 196.84ZM146.97 196.54C144.73 196.54 142.73 196.04 140.97 195.04C139.21 194.04 137.83 192.62 136.83 190.78C135.83 188.94 135.33 186.74 135.33 184.18V166.42H141.51V183.76C141.51 186.32 142.15 188.22 143.43 189.46C144.71 190.66 146.49 191.26 148.77 191.26C151.29 191.26 153.31 190.42 154.83 188.74C156.39 187.02 157.17 184.56 157.17 181.36V166.42H163.35V196H157.29V191.56H156.33C155.77 192.76 154.77 193.9 153.33 194.98C151.89 196.02 149.77 196.54 146.97 196.54ZM186.226 196.84C183.386 196.84 180.806 196.24 178.486 195.04C176.206 193.84 174.386 192.1 173.026 189.82C171.706 187.54 171.046 184.8 171.046 181.6V180.82C171.046 177.62 171.706 174.9 173.026 172.66C174.386 170.38 176.206 168.64 178.486 167.44C180.806 166.2 183.386 165.58 186.226 165.58C189.066 165.58 191.486 166.1 193.486 167.14C195.486 168.18 197.086 169.56 198.286 171.28C199.526 173 200.326 174.9 200.686 176.98L194.686 178.24C194.486 176.92 194.066 175.72 193.426 174.64C192.786 173.56 191.886 172.7 190.726 172.06C189.566 171.42 188.106 171.1 186.346 171.1C184.626 171.1 183.066 171.5 181.666 172.3C180.306 173.06 179.226 174.18 178.426 175.66C177.626 177.1 177.226 178.86 177.226 180.94V181.48C177.226 183.56 177.626 185.34 178.426 186.82C179.226 188.3 180.306 189.42 181.666 190.18C183.066 190.94 184.626 191.32 186.346 191.32C188.946 191.32 190.926 190.66 192.286 189.34C193.646 187.98 194.506 186.26 194.866 184.18L200.866 185.56C200.386 187.6 199.526 189.48 198.286 191.2C197.086 192.92 195.486 194.3 193.486 195.34C191.486 196.34 189.066 196.84 186.226 196.84ZM221.734 196.84C218.894 196.84 216.314 196.24 213.994 195.04C211.714 193.84 209.894 192.1 208.534 189.82C207.214 187.54 206.554 184.8 206.554 181.6V180.82C206.554 177.62 207.214 174.9 208.534 172.66C209.894 170.38 211.714 168.64 213.994 167.44C216.314 166.2 218.894 165.58 221.734 165.58C224.574 165.58 226.994 166.1 228.994 167.14C230.994 168.18 232.594 169.56 233.794 171.28C235.034 173 235.834 174.9 236.194 176.98L230.194 178.24C229.994 176.92 229.574 175.72 228.934 174.64C228.294 173.56 227.394 172.7 226.234 172.06C225.074 171.42 223.614 171.1 221.854 171.1C220.134 171.1 218.574 171.5 217.174 172.3C215.814 173.06 214.734 174.18 213.934 175.66C213.134 177.1 212.734 178.86 212.734 180.94V181.48C212.734 183.56 213.134 185.34 213.934 186.82C214.734 188.3 215.814 189.42 217.174 190.18C218.574 190.94 220.134 191.32 221.854 191.32C224.454 191.32 226.434 190.66 227.794 189.34C229.154 187.98 230.014 186.26 230.374 184.18L236.374 185.56C235.894 187.6 235.034 189.48 233.794 191.2C232.594 192.92 230.994 194.3 228.994 195.34C226.994 196.34 224.574 196.84 221.734 196.84ZM257.061 196.84C254.061 196.84 251.441 196.22 249.201 194.98C246.961 193.7 245.201 191.92 243.921 189.64C242.681 187.32 242.061 184.64 242.061 181.6V180.88C242.061 177.8 242.681 175.12 243.921 172.84C245.161 170.52 246.881 168.74 249.081 167.5C251.321 166.22 253.901 165.58 256.821 165.58C259.661 165.58 262.141 166.22 264.261 167.5C266.421 168.74 268.101 170.48 269.301 172.72C270.501 174.96 271.101 177.58 271.101 180.58V182.92H248.361C248.441 185.52 249.301 187.6 250.941 189.16C252.621 190.68 254.701 191.44 257.181 191.44C259.501 191.44 261.241 190.92 262.401 189.88C263.601 188.84 264.521 187.64 265.161 186.28L270.261 188.92C269.701 190.04 268.881 191.22 267.801 192.46C266.761 193.7 265.381 194.74 263.661 195.58C261.941 196.42 259.741 196.84 257.061 196.84ZM248.421 178.18H264.801C264.641 175.94 263.841 174.2 262.401 172.96C260.961 171.68 259.081 171.04 256.761 171.04C254.441 171.04 252.541 171.68 251.061 172.96C249.621 174.2 248.741 175.94 248.421 178.18ZM290.66 196.84C286.9 196.84 283.78 196 281.3 194.32C278.82 192.64 277.3 190.1 276.74 186.7L282.5 185.32C282.82 186.96 283.36 188.26 284.12 189.22C284.88 190.18 285.82 190.86 286.94 191.26C288.1 191.66 289.34 191.86 290.66 191.86C292.62 191.86 294.12 191.48 295.16 190.72C296.24 189.96 296.78 188.98 296.78 187.78C296.78 186.58 296.28 185.7 295.28 185.14C294.28 184.58 292.8 184.12 290.84 183.76L288.8 183.4C286.8 183.04 284.98 182.52 283.34 181.84C281.7 181.16 280.4 180.22 279.44 179.02C278.48 177.82 278 176.28 278 174.4C278 171.6 279.04 169.44 281.12 167.92C283.2 166.36 285.96 165.58 289.4 165.58C292.72 165.58 295.44 166.34 297.56 167.86C299.72 169.34 301.12 171.36 301.76 173.92L296 175.54C295.64 173.74 294.88 172.48 293.72 171.76C292.56 171 291.12 170.62 289.4 170.62C287.72 170.62 286.4 170.94 285.44 171.58C284.48 172.18 284 173.04 284 174.16C284 175.36 284.46 176.24 285.38 176.8C286.34 177.36 287.62 177.78 289.22 178.06L291.32 178.42C293.44 178.78 295.38 179.28 297.14 179.92C298.9 180.56 300.28 181.48 301.28 182.68C302.32 183.88 302.84 185.48 302.84 187.48C302.84 190.44 301.74 192.74 299.54 194.38C297.34 196.02 294.38 196.84 290.66 196.84ZM322.184 196.84C318.424 196.84 315.304 196 312.824 194.32C310.344 192.64 308.824 190.1 308.264 186.7L314.024 185.32C314.344 186.96 314.884 188.26 315.644 189.22C316.404 190.18 317.344 190.86 318.464 191.26C319.624 191.66 320.864 191.86 322.184 191.86C324.144 191.86 325.644 191.48 326.684 190.72C327.764 189.96 328.304 188.98 328.304 187.78C328.304 186.58 327.804 185.7 326.804 185.14C325.804 184.58 324.324 184.12 322.364 183.76L320.324 183.4C318.324 183.04 316.504 182.52 314.864 181.84C313.224 181.16 311.924 180.22 310.964 179.02C310.004 177.82 309.524 176.28 309.524 174.4C309.524 171.6 310.564 169.44 312.644 167.92C314.724 166.36 317.484 165.58 320.924 165.58C324.244 165.58 326.964 166.34 329.084 167.86C331.244 169.34 332.644 171.36 333.284 173.92L327.524 175.54C327.164 173.74 326.404 172.48 325.244 171.76C324.084 171 322.644 170.62 320.924 170.62C319.244 170.62 317.924 170.94 316.964 171.58C316.004 172.18 315.524 173.04 315.524 174.16C315.524 175.36 315.984 176.24 316.904 176.8C317.864 177.36 319.144 177.78 320.744 178.06L322.844 178.42C324.964 178.78 326.904 179.28 328.664 179.92C330.424 180.56 331.804 181.48 332.804 182.68C333.844 183.88 334.364 185.48 334.364 187.48C334.364 190.44 333.264 192.74 331.064 194.38C328.864 196.02 325.904 196.84 322.184 196.84Z" fill="black"/>
</svg>
