<svg width="277" height="30" viewBox="0 0 277 30" fill="none" xmlns="http://www.w3.org/2000/svg">
<path d="M48.634 21.252C47.722 21.252 46.906 21.09 46.186 20.766C45.466 20.442 44.896 19.956 44.476 19.308C44.068 18.648 43.864 17.826 43.864 16.842V16.464H45.358V16.842C45.358 17.886 45.664 18.666 46.276 19.182C46.888 19.686 47.674 19.938 48.634 19.938C49.618 19.938 50.368 19.716 50.884 19.272C51.4 18.828 51.658 18.27 51.658 17.598C51.658 17.13 51.538 16.758 51.298 16.482C51.07 16.206 50.746 15.984 50.326 15.816C49.906 15.636 49.414 15.48 48.85 15.348L47.914 15.114C47.182 14.922 46.534 14.688 45.97 14.412C45.406 14.136 44.962 13.776 44.638 13.332C44.326 12.876 44.17 12.294 44.17 11.586C44.17 10.878 44.344 10.266 44.692 9.75C45.052 9.234 45.55 8.838 46.186 8.562C46.834 8.286 47.578 8.148 48.418 8.148C49.27 8.148 50.032 8.298 50.704 8.598C51.388 8.886 51.922 9.318 52.306 9.894C52.702 10.458 52.9 11.172 52.9 12.036V12.792H51.406V12.036C51.406 11.424 51.274 10.932 51.01 10.56C50.758 10.188 50.404 9.912 49.948 9.732C49.504 9.552 48.994 9.462 48.418 9.462C47.59 9.462 46.924 9.648 46.42 10.02C45.916 10.38 45.664 10.896 45.664 11.568C45.664 12.012 45.772 12.372 45.988 12.648C46.204 12.924 46.51 13.152 46.906 13.332C47.302 13.5 47.776 13.65 48.328 13.782L49.264 14.016C49.996 14.172 50.65 14.388 51.226 14.664C51.814 14.928 52.282 15.294 52.63 15.762C52.978 16.218 53.152 16.818 53.152 17.562C53.152 18.306 52.966 18.954 52.594 19.506C52.222 20.058 51.694 20.49 51.01 20.802C50.338 21.102 49.546 21.252 48.634 21.252ZM58.2331 21.252C57.6211 21.252 57.0631 21.144 56.5591 20.928C56.0551 20.712 55.6591 20.4 55.3711 19.992C55.0831 19.584 54.9391 19.086 54.9391 18.498C54.9391 17.898 55.0831 17.406 55.3711 17.022C55.6591 16.626 56.0551 16.332 56.5591 16.14C57.0631 15.936 57.6271 15.834 58.2511 15.834H61.2211V15.186C61.2211 14.562 61.0351 14.07 60.6631 13.71C60.3031 13.35 59.7631 13.17 59.0431 13.17C58.3351 13.17 57.7831 13.344 57.3871 13.692C56.9911 14.028 56.7211 14.484 56.5771 15.06L55.2451 14.628C55.3891 14.136 55.6171 13.692 55.9291 13.296C56.2411 12.888 56.6551 12.564 57.1711 12.324C57.6991 12.072 58.3291 11.946 59.0611 11.946C60.1891 11.946 61.0651 12.24 61.6891 12.828C62.3131 13.404 62.6251 14.22 62.6251 15.276V19.254C62.6251 19.614 62.7931 19.794 63.1291 19.794H63.9391V21H62.6971C62.3011 21 61.9831 20.892 61.7431 20.676C61.5031 20.448 61.3831 20.148 61.3831 19.776V19.686H61.1671C61.0351 19.914 60.8551 20.154 60.6271 20.406C60.4111 20.646 60.1111 20.844 59.7271 21C59.3431 21.168 58.8451 21.252 58.2331 21.252ZM58.3951 20.028C59.2351 20.028 59.9131 19.782 60.4291 19.29C60.9571 18.786 61.2211 18.084 61.2211 17.184V16.986H58.3051C57.7411 16.986 57.2731 17.112 56.9011 17.364C56.5411 17.604 56.3611 17.97 56.3611 18.462C56.3611 18.954 56.5471 19.338 56.9191 19.614C57.3031 19.89 57.7951 20.028 58.3951 20.028ZM66.7201 24.6V23.34H71.7601C72.1081 23.34 72.2821 23.16 72.2821 22.8V19.596H72.0301C71.9101 19.848 71.7241 20.1 71.4721 20.352C71.2321 20.592 70.9141 20.79 70.5181 20.946C70.1221 21.09 69.6241 21.162 69.0241 21.162C68.3881 21.162 67.8001 21.024 67.2601 20.748C66.7321 20.472 66.3121 20.064 66.0001 19.524C65.7001 18.984 65.5501 18.324 65.5501 17.544V12.198H66.9721V17.436C66.9721 18.3 67.1881 18.93 67.6201 19.326C68.0641 19.722 68.6581 19.92 69.4021 19.92C70.2421 19.92 70.9321 19.644 71.4721 19.092C72.0121 18.54 72.2821 17.718 72.2821 16.626V12.198H73.7041V23.052C73.7041 23.532 73.5661 23.91 73.2901 24.186C73.0261 24.462 72.6361 24.6 72.1201 24.6H66.7201ZM81.2486 21V8.4H82.7606V13.998H88.6646V8.4H90.1766V21H88.6646V15.366H82.7606V21H81.2486ZM93.1151 21V12.198H94.5371V21H93.1151ZM93.8351 10.83C93.5231 10.83 93.2591 10.728 93.0431 10.524C92.8391 10.32 92.7371 10.062 92.7371 9.75C92.7371 9.426 92.8391 9.162 93.0431 8.958C93.2591 8.754 93.5231 8.652 93.8351 8.652C94.1471 8.652 94.4051 8.754 94.6091 8.958C94.8131 9.162 94.9151 9.426 94.9151 9.75C94.9151 10.062 94.8131 10.32 94.6091 10.524C94.4051 10.728 94.1471 10.83 93.8351 10.83Z" fill="black"/>
<rect x="0.5" y="0.5" width="29" height="29" rx="14.5" fill="white" stroke="black"/>
<circle cx="15" cy="15" r="8" fill="#B9FF66"/>
<rect x="131.5" y="0.5" width="29" height="29" rx="14.5" fill="white" stroke="black"/>
<path d="M179.832 21.252C178.896 21.252 178.068 21.06 177.348 20.676C176.64 20.28 176.082 19.704 175.674 18.948C175.278 18.192 175.08 17.256 175.08 16.14V13.26C175.08 11.592 175.524 10.326 176.412 9.462C177.3 8.586 178.494 8.148 179.994 8.148C181.482 8.148 182.616 8.556 183.396 9.372C184.176 10.188 184.566 11.28 184.566 12.648V12.738H183.072V12.612C183.072 12.012 182.964 11.478 182.748 11.01C182.532 10.542 182.196 10.176 181.74 9.912C181.284 9.636 180.702 9.498 179.994 9.498C178.926 9.498 178.092 9.828 177.492 10.488C176.892 11.136 176.592 12.048 176.592 13.224V16.176C176.592 17.352 176.892 18.27 177.492 18.93C178.092 19.578 178.932 19.902 180.012 19.902C181.068 19.902 181.842 19.602 182.334 19.002C182.838 18.402 183.09 17.604 183.09 16.608V16.302H179.274V15.006H184.566V21H183.198V19.632H182.946C182.814 19.896 182.628 20.154 182.388 20.406C182.148 20.658 181.824 20.862 181.416 21.018C181.008 21.174 180.48 21.252 179.832 21.252ZM191.409 21.252C190.521 21.252 189.741 21.066 189.069 20.694C188.397 20.31 187.875 19.776 187.503 19.092C187.131 18.408 186.945 17.616 186.945 16.716V16.5C186.945 15.588 187.131 14.79 187.503 14.106C187.875 13.422 188.391 12.894 189.051 12.522C189.711 12.138 190.467 11.946 191.319 11.946C192.147 11.946 192.879 12.126 193.515 12.486C194.151 12.834 194.649 13.338 195.009 13.998C195.369 14.658 195.549 15.432 195.549 16.32V16.968H188.367C188.403 17.916 188.709 18.66 189.285 19.2C189.861 19.728 190.581 19.992 191.445 19.992C192.201 19.992 192.783 19.818 193.191 19.47C193.599 19.122 193.911 18.708 194.127 18.228L195.351 18.822C195.171 19.194 194.919 19.566 194.595 19.938C194.283 20.31 193.869 20.622 193.353 20.874C192.849 21.126 192.201 21.252 191.409 21.252ZM188.385 15.798H194.109C194.061 14.982 193.779 14.346 193.263 13.89C192.759 13.434 192.111 13.206 191.319 13.206C190.515 13.206 189.855 13.434 189.339 13.89C188.823 14.346 188.505 14.982 188.385 15.798ZM200.918 21C200.414 21 200.024 20.862 199.748 20.586C199.484 20.31 199.352 19.932 199.352 19.452V13.44H196.706V12.198H199.352V9.066H200.774V12.198H203.654V13.44H200.774V19.236C200.774 19.596 200.948 19.776 201.296 19.776H203.258V21H200.918ZM213.28 21.252C212.668 21.252 212.11 21.144 211.606 20.928C211.102 20.712 210.706 20.4 210.418 19.992C210.13 19.584 209.986 19.086 209.986 18.498C209.986 17.898 210.13 17.406 210.418 17.022C210.706 16.626 211.102 16.332 211.606 16.14C212.11 15.936 212.674 15.834 213.298 15.834H216.268V15.186C216.268 14.562 216.082 14.07 215.71 13.71C215.35 13.35 214.81 13.17 214.09 13.17C213.382 13.17 212.83 13.344 212.434 13.692C212.038 14.028 211.768 14.484 211.624 15.06L210.292 14.628C210.436 14.136 210.664 13.692 210.976 13.296C211.288 12.888 211.702 12.564 212.218 12.324C212.746 12.072 213.376 11.946 214.108 11.946C215.236 11.946 216.112 12.24 216.736 12.828C217.36 13.404 217.672 14.22 217.672 15.276V19.254C217.672 19.614 217.84 19.794 218.176 19.794H218.986V21H217.744C217.348 21 217.03 20.892 216.79 20.676C216.55 20.448 216.43 20.148 216.43 19.776V19.686H216.214C216.082 19.914 215.902 20.154 215.674 20.406C215.458 20.646 215.158 20.844 214.774 21C214.39 21.168 213.892 21.252 213.28 21.252ZM213.442 20.028C214.282 20.028 214.96 19.782 215.476 19.29C216.004 18.786 216.268 18.084 216.268 17.184V16.986H213.352C212.788 16.986 212.32 17.112 211.948 17.364C211.588 17.604 211.408 17.97 211.408 18.462C211.408 18.954 211.594 19.338 211.966 19.614C212.35 19.89 212.842 20.028 213.442 20.028ZM230.075 21.252C228.575 21.252 227.375 20.82 226.475 19.956C225.587 19.08 225.143 17.808 225.143 16.14V13.26C225.143 11.592 225.587 10.326 226.475 9.462C227.375 8.586 228.575 8.148 230.075 8.148C231.587 8.148 232.787 8.586 233.675 9.462C234.575 10.326 235.025 11.592 235.025 13.26V16.14C235.025 17.808 234.575 19.08 233.675 19.956C232.787 20.82 231.587 21.252 230.075 21.252ZM230.075 19.902C231.167 19.902 232.013 19.578 232.613 18.93C233.213 18.27 233.513 17.358 233.513 16.194V13.206C233.513 12.042 233.213 11.136 232.613 10.488C232.013 9.828 231.167 9.498 230.075 9.498C228.995 9.498 228.155 9.828 227.555 10.488C226.955 11.136 226.655 12.042 226.655 13.206V16.194C226.655 17.358 226.955 18.27 227.555 18.93C228.155 19.578 228.995 19.902 230.075 19.902ZM230.813 23.916C230.369 23.916 230.009 23.778 229.733 23.502C229.469 23.238 229.337 22.872 229.337 22.404V21H230.813V22.134C230.813 22.494 230.981 22.674 231.317 22.674H232.505V23.916H230.813ZM240.964 21.162C240.328 21.162 239.74 21.024 239.2 20.748C238.672 20.472 238.252 20.064 237.94 19.524C237.64 18.972 237.49 18.306 237.49 17.526V12.198H238.912V17.418C238.912 18.294 239.128 18.93 239.56 19.326C240.004 19.722 240.598 19.92 241.342 19.92C242.182 19.92 242.872 19.644 243.412 19.092C243.952 18.54 244.222 17.718 244.222 16.626V12.198H245.644V21H244.258V19.506H244.006C243.814 19.926 243.484 20.31 243.016 20.658C242.548 20.994 241.864 21.162 240.964 21.162ZM252.687 21.252C251.799 21.252 251.013 21.066 250.329 20.694C249.657 20.322 249.129 19.8 248.745 19.128C248.373 18.444 248.187 17.64 248.187 16.716V16.482C248.187 15.57 248.373 14.772 248.745 14.088C249.129 13.404 249.657 12.876 250.329 12.504C251.013 12.132 251.799 11.946 252.687 11.946C253.575 11.946 254.355 12.132 255.027 12.504C255.711 12.876 256.239 13.404 256.611 14.088C256.995 14.772 257.187 15.57 257.187 16.482V16.716C257.187 17.64 256.995 18.444 256.611 19.128C256.239 19.8 255.711 20.322 255.027 20.694C254.355 21.066 253.575 21.252 252.687 21.252ZM252.687 19.974C253.623 19.974 254.367 19.68 254.919 19.092C255.483 18.492 255.765 17.688 255.765 16.68V16.518C255.765 15.51 255.483 14.712 254.919 14.124C254.367 13.524 253.623 13.224 252.687 13.224C251.763 13.224 251.019 13.524 250.455 14.124C249.891 14.712 249.609 15.51 249.609 16.518V16.68C249.609 17.688 249.891 18.492 250.455 19.092C251.019 19.68 251.763 19.974 252.687 19.974ZM262.634 21C262.13 21 261.74 20.862 261.464 20.586C261.2 20.31 261.068 19.932 261.068 19.452V13.44H258.422V12.198H261.068V9.066H262.49V12.198H265.37V13.44H262.49V19.236C262.49 19.596 262.664 19.776 263.012 19.776H264.974V21H262.634ZM271.389 21.252C270.501 21.252 269.721 21.066 269.049 20.694C268.377 20.31 267.855 19.776 267.483 19.092C267.111 18.408 266.925 17.616 266.925 16.716V16.5C266.925 15.588 267.111 14.79 267.483 14.106C267.855 13.422 268.371 12.894 269.031 12.522C269.691 12.138 270.447 11.946 271.299 11.946C272.127 11.946 272.859 12.126 273.495 12.486C274.131 12.834 274.629 13.338 274.989 13.998C275.349 14.658 275.529 15.432 275.529 16.32V16.968H268.347C268.383 17.916 268.689 18.66 269.265 19.2C269.841 19.728 270.561 19.992 271.425 19.992C272.181 19.992 272.763 19.818 273.171 19.47C273.579 19.122 273.891 18.708 274.107 18.228L275.331 18.822C275.151 19.194 274.899 19.566 274.575 19.938C274.263 20.31 273.849 20.622 273.333 20.874C272.829 21.126 272.181 21.252 271.389 21.252ZM268.365 15.798H274.089C274.041 14.982 273.759 14.346 273.243 13.89C272.739 13.434 272.091 13.206 271.299 13.206C270.495 13.206 269.835 13.434 269.319 13.89C268.803 14.346 268.485 14.982 268.365 15.798Z" fill="black"/>
</svg>
